# xmcd
#
# Track frame offsets:
#	150
#	25291
#	43450
#	56138
#	72316
#	90821
#	104797
#	120164
#	134989
#
# Disc length: 2143 seconds
# Revision: 0
# Processed by: cddbd v1.5.2PL0 Copyright (c) Steve Scherf et al.
# Submitted via: dBpowerAMP V12.0
#
DISCID=85085d09
DTITLE=Jack Hadley - The St Louis Sessions
DYEAR=2014
DGENRE=Blues
TTITLE0=That Dress
TTITLE1=Bye Bye Baby (Blues Is My Life)
TTITLE2=If You Only Knew
TTITLE3=I'm Here For You
TTITLE4=Ain't Nothin New
TTITLE5=Something So Bad
TTITLE6=Behind My Scar
TTITLE7=I Need Somebody
TTITLE8=Still Not My Home
EXTD=
EXTT0=
EXTT1=
EXTT2=
EXTT3=
EXTT4=
EXTT5=
EXTT6=
EXTT7=
EXTT8=
PLAYORDER=
